<?xml version="1.0" standalone="no"?>
<!DOCTYPE svg PUBLIC "-//W3C//DTD SVG 20010904//EN"
 "http://www.w3.org/TR/2001/REC-SVG-20010904/DTD/svg10.dtd">
<svg version="1.0" xmlns="http://www.w3.org/2000/svg"
 width="214.000000pt" height="214.000000pt" viewBox="0 0 214.000000 214.000000"
 preserveAspectRatio="xMidYMid meet">
<metadata>
Created by potrace 1.14, written by Peter Selinger 2001-2017
</metadata>
<g transform="translate(0.000000,214.000000) scale(0.100000,-0.100000)"
fill="#000000" stroke="none">
<path d="M925 1986 c-109 -19 -176 -41 -270 -88 -258 -128 -442 -369 -500
-657 -21 -102 -16 -313 9 -405 92 -332 326 -573 653 -673 78 -23 105 -26 243
-27 173 -1 245 12 381 69 522 219 727 879 421 1356 -134 208 -344 357 -584
414 -92 22 -258 27 -353 11z m206 -497 c237 -24 525 -115 599 -189 29 -29 26
-85 -5 -115 -32 -33 -63 -31 -138 6 -88 45 -213 86 -342 111 -158 32 -464 32
-612 0 -133 -29 -156 -28 -182 4 -27 34 -27 74 -1 107 50 64 410 104 681 76z
m66 -338 c158 -33 352 -110 403 -161 29 -29 26 -74 -6 -99 -15 -12 -32 -21
-39 -21 -7 0 -48 18 -92 40 -92 48 -196 82 -319 106 -120 24 -351 23 -454 0
-137 -32 -154 -32 -178 -1 -62 78 7 123 238 155 103 14 331 4 447 -19z m16
-311 c45 -12 123 -41 174 -65 100 -47 132 -79 113 -114 -23 -43 -41 -42 -141
4 -160 75 -225 89 -434 89 -137 1 -200 -4 -262 -17 -92 -20 -118 -14 -129 29
-10 39 20 62 106 80 170 35 422 33 573 -6z"/>
</g>
</svg>
